<svg width="36" height="36" viewBox="0 0 36 36" fill="none" xmlns="http://www.w3.org/2000/svg">
<path d="M18 0C27.9141 0 36 8.08594 36 18C36 27.9844 27.9141 36 18 36C8.01562 36 0 27.9844 0 18C0 8.08594 8.01562 0 18 0ZM18 32.625C26.0156 32.625 32.625 26.0859 32.625 18C32.625 9.98438 26.0156 3.375 18 3.375C9.91406 3.375 3.375 9.98438 3.375 18C3.375 26.0859 9.91406 32.625 18 32.625ZM20.8125 23.625C21.7266 23.625 22.5 24.3984 22.5 25.3125C22.5 26.2969 21.7266 27 20.8125 27H15.1875C14.2031 27 13.5 26.2969 13.5 25.3125C13.5 24.3984 14.2031 23.625 15.1875 23.625H16.3125V19.125H15.75C14.7656 19.125 14.0625 18.4219 14.0625 17.4375C14.0625 16.5234 14.7656 15.75 15.75 15.75H18C18.9141 15.75 19.6875 16.5234 19.6875 17.4375V23.625H20.8125ZM18 13.5C16.7344 13.5 15.75 12.5156 15.75 11.25C15.75 10.0547 16.7344 9 18 9C19.1953 9 20.25 10.0547 20.25 11.25C20.25 12.5156 19.1953 13.5 18 13.5Z" fill="#007DB9"/>
</svg>
