<svg width="36" height="48" viewBox="0 0 36 48" fill="none" xmlns="http://www.w3.org/2000/svg">
<path d="M36 42C36 45.375 33.2812 48 30 48H6C2.625 48 0 45.375 0 42H3C3 43.6875 4.3125 45 6 45H30C31.5938 45 33 43.6875 33 42H36ZM22.5 18C19.9688 18 18 16.0312 18 13.5V3H6C4.3125 3 3 4.40625 3 6V21H0V6C0 2.71875 2.625 0 6 0H20.625C21.75 0 22.9688 0.5625 23.8125 1.40625L34.5938 12.1875C35.4375 13.0312 36 14.25 36 15.375V21H33V18H22.5ZM32.5312 14.3438L21.6562 3.46875C21.4688 3.28125 21.1875 3.1875 21 3.09375V13.5C21 14.3438 21.6562 15 22.5 15H32.9062C32.8125 14.8125 32.7188 14.5312 32.5312 14.3438ZM8.25 24C11.0625 24 13.5 26.4375 13.5 29.25C13.5 32.1562 11.0625 34.5 8.25 34.5H7.5V37.5C7.5 38.3438 6.75 39 6 39C5.15625 39 4.5 38.3438 4.5 37.5V25.5C4.5 24.75 5.15625 24 6 24H8.25ZM10.5 29.25C10.5 28.0312 9.46875 27 8.25 27H7.5V31.5H8.25C9.46875 31.5 10.5 30.5625 10.5 29.25ZM15 25.5C15 24.75 15.6562 24 16.5 24H18.75C21.1875 24 23.25 26.0625 23.25 28.5V34.5C23.25 37.0312 21.1875 39 18.75 39H16.5C15.6562 39 15 38.3438 15 37.5V25.5ZM18 36H18.75C19.5 36 20.25 35.3438 20.25 34.5V28.5C20.25 27.75 19.5 27 18.75 27H18V36ZM31.5 24C32.25 24 33 24.75 33 25.5C33 26.3438 32.25 27 31.5 27H28.5V30H31.5C32.25 30 33 30.75 33 31.5C33 32.3438 32.25 33 31.5 33H28.5V37.5C28.5 38.3438 27.75 39 27 39C26.1562 39 25.5 38.3438 25.5 37.5V25.5C25.5 24.75 26.1562 24 27 24H31.5Z" fill="#5C6AC1"/>
</svg>
