<?xml version="1.0" encoding="utf-8"?>
<!-- Generator: Adobe Illustrator 27.5.0, SVG Export Plug-In . SVG Version: 6.00 Build 0)  -->
<svg version="1.1" id="Layer_1" xmlns="http://www.w3.org/2000/svg" xmlns:xlink="http://www.w3.org/1999/xlink" x="0px" y="0px"
	 viewBox="0 0 325 325" style="enable-background:new 0 0 325 325;" xml:space="preserve">
<style type="text/css">
	.st0{fill:#74C6BE;}
	
		.st1{fill:none;stroke:#000000;stroke-width:6;stroke-linecap:round;stroke-linejoin:round;stroke-miterlimit:10;stroke-dasharray:6,16;}
	.st2{fill:#FFFFFF;stroke:#231F20;stroke-width:6;stroke-miterlimit:10;}
	.st3{fill:none;stroke:#231F20;stroke-width:6;stroke-linecap:round;stroke-linejoin:round;stroke-miterlimit:10;}
	.st4{fill:#FFFFFF;}
	.st5{fill:#231F20;}
	.st6{fill:none;stroke:#231F20;stroke-width:5.85;stroke-linecap:round;stroke-linejoin:round;stroke-miterlimit:10;}
	.st7{fill:#5D6AB0;}
	.st8{fill:none;stroke:#FFFFFF;stroke-width:4.8562;stroke-linecap:round;stroke-linejoin:round;stroke-miterlimit:10;}
</style>
<g>
	<path id="Path_10778_00000181077650667728362750000006073118434973595051_" class="st0" d="M281.6,207.7
		c19.6-37.3,20.2-74.6-9.7-106.1C186.8,2.8,22.8-1.9,29.7,159.9C31.4,240.3,102.5,315,184.5,287
		C225.5,274.7,261.4,245.8,281.6,207.7"/>
	<path id="Path_10778_00000092443281846081334290000001990850591904511920_" class="st1" d="M24.2,244c20.3,42.3,59.8,73.5,106.2,73
		"/>
	<circle class="st2" cx="286.6" cy="288.1" r="10.4"/>
	<g>
		<line class="st3" x1="44.1" y1="35.3" x2="25.8" y2="44.6"/>
		<line class="st3" x1="39.6" y1="49.1" x2="30.3" y2="30.8"/>
	</g>
	<g>
		<g>
			<g>
				<g>
					<g>
						<path class="st4" d="M102.2,266c-9,0-16.3-7.3-16.3-16.3V115.6c0-0.7,0.1-1.4,0.2-2.2c0-0.2,0-0.3,0.1-0.5
							c0.1-0.7,0.3-1.3,0.4-1.9v-0.1c0.2-0.7,0.5-1.4,0.8-2.1l0.1-0.2c0.3-0.7,0.7-1.3,1-1.8l0.1-0.1c0.4-0.6,0.8-1.2,1.3-1.7
							l0.1-0.1c1-1.2,2.2-2.1,3.5-2.9l0.1-0.1c0.6-0.4,1.3-0.7,1.9-1l0.2-0.1c2.1-0.9,4.3-1.4,6.5-1.4h120.7c2.3,0,4.6,0.5,6.7,1.4
							c0.6,0.3,1.1,0.6,1.7,0.9c0.2,0.1,0.3,0.2,0.4,0.3c0.6,0.4,1.1,0.8,1.6,1.2c0.1,0.1,0.2,0.2,0.3,0.3c0.5,0.4,0.9,0.8,1.2,1.2
							l0.1,0.1c0.1,0.1,0.2,0.2,0.3,0.4c0.5,0.5,0.8,1.1,1.2,1.6c0.1,0.1,0.1,0.2,0.2,0.3c0.3,0.5,0.6,1,0.9,1.6
							c0.1,0.1,0.1,0.3,0.2,0.4c0.3,0.7,0.6,1.3,0.7,2l0.1,0.3c0.2,0.5,0.3,1.1,0.4,1.8c0,0.2,0.1,0.4,0.1,0.5
							c0.1,0.8,0.2,1.5,0.2,2.1v134.1c0,9-7.3,16.3-16.3,16.3H102.2V266z"/>
						<g>
							<path d="M222.9,102.1c2,0,3.8,0.4,5.5,1.2c0.5,0.2,1,0.5,1.4,0.8c0.1,0.1,0.2,0.1,0.3,0.2c0.5,0.3,0.9,0.6,1.4,1
								c0.1,0.1,0.2,0.2,0.3,0.3c0.3,0.3,0.7,0.6,1,0.9c0.1,0.1,0.2,0.2,0.3,0.4c0.4,0.4,0.7,0.8,1,1.3c0.1,0.1,0.1,0.2,0.2,0.3
								c0.3,0.4,0.5,0.8,0.7,1.2c0.1,0.1,0.1,0.2,0.2,0.4c0.2,0.5,0.4,1.1,0.6,1.6c0,0.1,0,0.1,0,0.2c0.1,0.5,0.3,1,0.3,1.5
								c0,0.1,0,0.3,0.1,0.4c0.1,0.6,0.1,1.2,0.1,1.8v134.1c0,7.4-6,13.4-13.4,13.4H102.2c-7.4,0-13.4-6-13.4-13.4V115.6
								c0-0.6,0.1-1.2,0.1-1.8c0-0.1,0-0.3,0.1-0.4c0.1-0.6,0.2-1.1,0.4-1.6c0,0,0,0,0-0.1c0.2-0.6,0.4-1.1,0.6-1.7
								c0-0.1,0.1-0.2,0.1-0.2c0.2-0.5,0.5-1,0.8-1.5l0,0c0.3-0.5,0.7-1,1.1-1.4c0-0.1,0.1-0.1,0.1-0.1c0.8-0.9,1.8-1.7,2.8-2.4H95
								c0.5-0.3,1.1-0.6,1.7-0.9c0,0,0,0,0.1,0c1.6-0.7,3.4-1.1,5.3-1.1h120.8 M222.9,96.3H102.2c-2.6,0-5.2,0.5-7.6,1.6h-0.1h-0.1
								L94.1,98l0,0c-0.7,0.3-1.4,0.7-2,1.1L92,99.2c-1.5,0.9-2.9,2.1-4.1,3.4c-0.1,0.1-0.1,0.1-0.2,0.2c-0.6,0.7-1.1,1.4-1.6,2.1
								L86,105v0.1c-0.4,0.6-0.8,1.3-1.1,2c-0.1,0.1-0.1,0.2-0.2,0.3c-0.4,0.8-0.7,1.6-0.9,2.4l-0.1,0.2v0.1
								c-0.2,0.7-0.4,1.4-0.5,2.2c0,0.2-0.1,0.4-0.1,0.6c-0.1,0.9-0.2,1.7-0.2,2.5v134.1c0,10.6,8.6,19.3,19.3,19.3h120.7
								c10.6,0,19.3-8.6,19.3-19.3V115.6c0-0.8-0.1-1.6-0.2-2.5c0-0.2-0.1-0.4-0.1-0.6c-0.1-0.7-0.3-1.4-0.5-2.1
								c0-0.1-0.1-0.2-0.1-0.4c-0.2-0.7-0.5-1.5-0.9-2.3c-0.1-0.2-0.2-0.3-0.2-0.5v-0.1c-0.3-0.6-0.6-1.2-1-1.7
								c-0.1-0.2-0.2-0.3-0.3-0.4c-0.4-0.6-0.9-1.2-1.4-1.9c-0.1-0.2-0.3-0.3-0.4-0.5l-0.1-0.1c-0.4-0.5-0.9-0.9-1.4-1.3
								c-0.1-0.1-0.3-0.3-0.4-0.4c-0.6-0.5-1.3-1-1.9-1.4c-0.1-0.1-0.3-0.2-0.4-0.2h-0.1c-0.7-0.4-1.4-0.8-2.1-1.1
								C228.3,96.9,225.6,96.3,222.9,96.3L222.9,96.3z"/>
						</g>
					</g>
					<g>
						<path class="st4" d="M122.3,118.5c-5.3,0-9.6-4.3-9.6-9.6v-6c0-9.4,7.6-17,17-17h3.1l0.3-1.5c2.4-11.9,10.9-21.4,21.6-24.3
							c2.6-0.7,5.2-1,7.9-1c14.1,0,26.4,10,29.2,23.8l0.6,3h3.1c9.2,0,17,7.8,17,17v6c0,5.3-4.3,9.6-9.6,9.6H122.3z"/>
						<path d="M162.5,61.9c12.7,0,23.8,9,26.3,21.5l1.1,5.4h5.5c7.4,0,14.1,6.3,14.1,14.1v6c0,3.7-3,6.7-6.7,6.7h-80.5
							c-3.7,0-6.7-3-6.7-6.7v-6c0-7.8,6.3-14.1,14.1-14.1h5.5L136,85c2.1-10.3,9.3-19.4,19.5-22.1C157.8,62.2,160.2,61.9,162.5,61.9
							 M162.5,56.1c-2.9,0-5.8,0.4-8.6,1.1c-11.5,3.1-20.6,13.1-23.5,25.7h-0.7c-11,0-19.9,8.9-19.9,19.9v6
							c0,6.9,5.6,12.6,12.6,12.6h80.5c6.9,0,12.6-5.6,12.6-12.6v-6c0-10.8-9.1-19.9-19.9-19.9h-0.7l-0.1-0.7
							C191.5,67,178,56.1,162.5,56.1L162.5,56.1z"/>
					</g>
					<circle cx="162.5" cy="88.7" r="6.7"/>
					<g>
						<circle class="st5" cx="127" cy="212.1" r="6.7"/>
						<line class="st6" x1="151.5" y1="165.5" x2="207.3" y2="165.5"/>
						<line class="st6" x1="151.5" y1="212.1" x2="209.5" y2="212.1"/>
						<polyline class="st6" points="107,162.1 118.3,173.6 146.9,146.4 						"/>
					</g>
				</g>
				<g>
					<g>
						<path class="st7" d="M236.2,141.1c-6,0-11.8-2.7-15.7-7.4c-0.6,0.1-1.2,0.1-1.8,0.1c-5.5,0-10.8-2.2-14.7-6.1
							c-4.4-4.4-6.5-10.3-6-16.4c-4.7-3.9-7.4-9.7-7.4-15.9c0-6.2,2.7-11.9,7.4-15.9c-0.5-6.1,1.6-12,6-16.4
							c3.9-3.9,9.1-6.1,14.7-6.1c0.6,0,1.2,0,1.7,0.1c3.9-4.7,9.7-7.4,15.9-7.4s11.9,2.7,15.9,7.4c0.6,0,1.2-0.1,1.7-0.1
							c5.6,0,10.8,2.2,14.7,6.1c4.4,4.4,6.6,10.3,6,16.4c4.7,3.9,7.4,9.7,7.4,15.9c0,6.2-2.7,11.9-7.4,15.9c0.5,6.1-1.6,12-6,16.4
							c-3.9,3.9-9.1,6.1-14.7,6.1c-0.6,0-1.2,0-1.8-0.1C248.2,138.5,242.5,141.1,236.2,141.1z"/>
						<path d="M236.3,52.2c5.9,0,11.4,2.8,14.8,7.5c0.9-0.1,1.9-0.2,2.8-0.2c4.9,0,9.5,1.9,13,5.4c4.2,4.2,6.1,10,5.2,15.8
							c4.7,3.5,7.5,8.9,7.5,14.8s-2.8,11.4-7.5,14.8c0.9,5.8-1,11.6-5.2,15.8c-3.4,3.5-8,5.4-12.9,5.4c-0.9,0-1.9-0.1-2.8-0.2
							c-3.5,4.7-8.9,7.5-15,7.5c-5.7,0-11.2-2.8-14.7-7.5c-0.9,0.1-1.9,0.2-2.8,0.2c-4.9,0-9.5-1.9-13-5.4c-4.2-4.2-6.1-10-5.2-15.8
							c-4.7-3.5-7.5-8.9-7.5-14.8s2.8-11.4,7.5-14.8c-0.9-5.8,1-11.6,5.2-15.8c3.5-3.5,8.1-5.4,13-5.4c0.9,0,1.9,0.1,2.8,0.2
							C224.9,55,230.4,52.2,236.3,52.2 M236.3,47.3c-6.5,0-12.6,2.6-16.9,7.3c-0.2,0-0.5,0-0.7,0c-6.2,0-12,2.4-16.4,6.8
							c-4.6,4.6-7,10.7-6.8,17.1c-4.7,4.4-7.3,10.4-7.3,16.9s2.6,12.5,7.3,16.9c-0.2,6.4,2.2,12.5,6.8,17.1
							c4.4,4.4,10.2,6.8,16.4,6.8c0.2,0,0.5,0,0.7,0c4.3,4.6,10.4,7.3,16.8,7.3c6.6,0,12.7-2.6,17.1-7.3c0.2,0,0.5,0,0.7,0
							c6.2,0,12-2.4,16.4-6.8c4.6-4.6,7-10.7,6.8-17.1c4.7-4.4,7.3-10.4,7.3-16.9s-2.6-12.5-7.3-16.9c0.2-6.4-2.2-12.5-6.8-17.1
							c-4.4-4.4-10.2-6.8-16.4-6.8c-0.2,0-0.5,0-0.7,0C248.9,50,242.8,47.3,236.3,47.3L236.3,47.3z"/>
					</g>
					<polyline class="st8" points="221.6,97 229.9,105.4 251,85.4 					"/>
				</g>
			</g>
		</g>
	</g>
</g>
</svg>
