<?xml version="1.0" encoding="utf-8"?>
<!-- Generator: Adobe Illustrator 27.5.0, SVG Export Plug-In . SVG Version: 6.00 Build 0)  -->
<svg version="1.1" id="Layer_2_00000100381501669769216220000010517034162531670961_"
	 xmlns="http://www.w3.org/2000/svg" xmlns:xlink="http://www.w3.org/1999/xlink" x="0px" y="0px" viewBox="0 0 200 200"
	 style="enable-background:new 0 0 200 200;" xml:space="preserve">
<style type="text/css">
	.st0{fill:#74C6BE;}
	
		.st1{fill:none;stroke:#000000;stroke-width:3.6;stroke-linecap:round;stroke-linejoin:round;stroke-miterlimit:10;stroke-dasharray:4,10;}
	.st2{fill:#FFFFFF;stroke:#231F20;stroke-width:3.6;stroke-linecap:round;stroke-linejoin:round;stroke-miterlimit:10;}
	.st3{fill:#FFFFFF;stroke:#231F20;stroke-width:3.6;stroke-miterlimit:10;}
	.st4{fill:#5D6AB0;}
	.st5{fill:#FFFFFF;}
</style>
<g>
	<path class="st0" d="M183.9,81.2c-7.3-46.9-70.8-73.5-115.3-54C18.7,54.6,1.6,118,38.1,165.6c15.9,21.4,49.9,20.7,75.9,20.7
		C182.5,186.4,194.1,138.9,183.9,81.2z"/>
	<path class="st1" d="M70.5,10.9c-4.8,0.9-9.4,2.3-13.9,4.2C33.3,27.2,16.8,47.2,9.3,69.9"/>
	<g>
		<line class="st2" x1="190.1" y1="180.8" x2="178.5" y2="185.8"/>
		<line class="st2" x1="186.8" y1="189.1" x2="181.8" y2="177.5"/>
	</g>
	<circle class="st3" cx="184.3" cy="23.4" r="6.4"/>
	<polyline class="st4" points="146.6,61.3 128.2,79.8 150,83.5 	"/>
	<g>
		<circle class="st5" cx="102.8" cy="105.2" r="59"/>
		<g>
			<path d="M163.4,102.7c-1.2-29.7-23.8-53.9-52.9-57.6c-0.3,0-0.7-0.1-1-0.1c-0.4,0-0.8-0.1-1.2-0.1c-0.6-0.1-1.2-0.1-1.8-0.1
				c-0.3,0-0.6,0-0.9-0.1c-0.9,0-1.8-0.1-2.8-0.1c-2.4,0-4.8,0.2-7.1,0.4c-1.7,0.2-3.4,0.5-5.1,0.8c-7.7,1.6-14.9,4.6-21.3,8.9
				c-0.1,0.1-0.3,0.2-0.4,0.2c-1.5,1-3,2.2-4.5,3.3c-0.1,0.1-0.1,0.1-0.2,0.2c-2.5,2.1-4.8,4.4-7,6.8c-1.3,1.5-2.5,3-3.7,4.6
				c-1.2,1.7-2.4,3.5-3.4,5.3c-0.7,1.2-1.4,2.5-2,3.8c-0.1,0.3-0.2,0.5-0.3,0.8c-0.7,1.5-1.3,2.9-1.9,4.5c-0.1,0.4-0.2,0.7-0.4,1.1
				c-0.8,2.2-1.4,4.5-1.9,6.8c-0.4,2-0.8,4-1,6.1c-0.3,2.3-0.4,4.7-0.4,7.1c0,2.4,0.2,4.8,0.4,7.1c0.2,1.7,0.5,3.4,0.8,5.1
				c1,4.6,2.4,9.1,4.4,13.3c0.1,0.3,0.2,0.5,0.3,0.8c0.6,1.3,1.3,2.5,2,3.8c0.8,1.3,1.5,2.6,2.4,3.9c1,1.5,2.2,3,3.3,4.5
				c0.1,0.1,0.1,0.1,0.2,0.2c1.1,1.3,2.2,2.6,3.4,3.8c0.2,0.2,0.3,0.3,0.5,0.5c0.2,0.2,0.3,0.3,0.5,0.5c1.2,1.2,2.5,2.3,3.8,3.4
				c0.1,0.1,0.1,0.1,0.2,0.2c1.4,1.2,2.9,2.3,4.5,3.3c1.2,0.8,2.5,1.6,3.9,2.4c1.2,0.7,2.5,1.4,3.8,2c0.3,0.1,0.5,0.2,0.8,0.3
				c4.2,1.9,8.6,3.4,13.3,4.4c1.7,0.3,3.4,0.6,5.1,0.8c2.3,0.3,4.7,0.4,7.1,0.4c0.8,0,1.7,0,2.5-0.1c29.7-1.2,53.9-23.8,57.6-52.9
				c0-0.3,0.1-0.7,0.1-1c0-0.4,0.1-0.8,0.1-1.2c0.1-0.6,0.1-1.2,0.1-1.8c0-0.3,0-0.6,0.1-0.9c0-0.9,0.1-1.8,0.1-2.8
				C163.4,104.4,163.4,103.6,163.4,102.7z M159.6,107.8c0,0.2,0,0.5,0,0.7c0,0.7-0.1,1.5-0.2,2.2c0,0.4-0.1,0.8-0.1,1.2
				c0,0.4-0.1,0.8-0.2,1.2c-0.1,0.5-0.1,1-0.2,1.5c0,0,0,0.1,0,0.1c-0.2,1-0.4,2.1-0.6,3.1c-0.1,0.3-0.1,0.6-0.2,1
				c-0.1,0.3-0.1,0.6-0.2,0.9c-5.2,19.7-20.7,35.3-40.4,40.5c-0.2,0.1-0.5,0.1-0.7,0.2c-0.7,0.2-1.5,0.4-2.3,0.5c-0.1,0-0.1,0-0.2,0
				c-0.8,0.2-1.7,0.3-2.5,0.5c-0.2,0-0.3,0.1-0.5,0.1c-0.8,0.1-1.7,0.2-2.5,0.3c0,0,0,0,0,0c-0.9,0.1-1.7,0.1-2.6,0.2
				c-0.2,0-0.4,0-0.6,0c-0.9,0-1.7,0.1-2.6,0.1C71.5,162,46,136.6,46,105.2s25.4-56.8,56.8-56.8c0.9,0,1.7,0,2.6,0.1
				c0.2,0,0.5,0,0.7,0c0.7,0,1.4,0.1,2.2,0.2c0.4,0,0.8,0.1,1.2,0.1c0.4,0,0.8,0.1,1.2,0.2c0.5,0.1,1,0.1,1.5,0.2c0,0,0.1,0,0.1,0
				c1.1,0.2,2.1,0.4,3.2,0.6c0.3,0.1,0.6,0.1,0.9,0.2c0.3,0.1,0.6,0.1,0.9,0.2c19.7,5.2,35.3,20.7,40.5,40.4
				c0.1,0.2,0.1,0.5,0.2,0.7c0.2,0.7,0.4,1.5,0.5,2.3c0,0,0,0.1,0,0.1c0.2,0.8,0.3,1.7,0.5,2.5c0,0.2,0.1,0.3,0.1,0.5
				c0.1,0.8,0.2,1.7,0.3,2.5c0,0,0,0,0,0c0.1,0.9,0.1,1.7,0.2,2.6c0,0.2,0,0.4,0,0.6c0,0.9,0.1,1.7,0.1,2.6
				C159.6,106.1,159.6,107,159.6,107.8z"/>
			<polygon class="st4" points="167,67.7 148.6,61.3 130.4,79.7 152.2,83.6 166.3,68.9 			"/>
			<polygon class="st4" points="139.4,42.8 124.4,56.5 127.9,78.5 146.6,60.6 140.6,42.1 			"/>
			<path d="M164.9,64.4l-16.6-4.5l-4.5-16.6c-0.8-2.8-4.3-3.7-6.3-1.7l-12.2,12c-1.9,2.2-2.9,5.2-2.4,8.2l3,17.9l-24,23.9
				c-0.7,0.8-0.7,1.9,0,2.7c0.8,0.7,1.9,0.7,2.7,0l23.9-24l17.9,3c3,0.5,6.1-0.5,8.3-2.7l12-12C168.6,68.6,167.7,65.1,164.9,64.4z
				 M126.5,61.1c-0.3-1.8,0.3-3.7,1.6-5l12-12l4.5,16.6L129,76.4L126.5,61.1z M151.7,80c-1.1,1.3-2.9,1.9-4.7,1.6L131.7,79
				l15.6-15.6l16.6,4.5L151.7,80z"/>
			<path d="M142.6,103.5c-0.8-19.1-15-34.7-33.5-37.6c0,0,0,0,0,0c0,0-0.1,0-0.1,0c-0.1,0-0.2,0-0.3,0c-0.5-0.1-1-0.1-1.5-0.2
				c-0.2,0-0.4,0-0.6-0.1c-0.4,0-0.8-0.1-1.3-0.1c-0.2,0-0.4,0-0.6,0c-0.6,0-1.2,0-1.8,0c0,0,0,0,0,0C87.1,65.5,73.4,74.7,67,88
				c-0.1,0.1-0.1,0.3-0.2,0.4c-0.3,0.7-0.7,1.5-1,2.2c-1.8,4.5-2.8,9.5-2.8,14.6c0,12.4,5.6,23.4,14.5,30.7
				c6.9,5.7,15.7,9.1,25.3,9.1c0.6,0,1.1,0,1.7,0c19.1-0.8,34.7-15,37.6-33.5c0,0,0,0,0,0c0,0,0-0.1,0-0.1c0-0.1,0-0.2,0-0.3
				c0.1-0.5,0.1-1,0.2-1.5c0-0.2,0-0.4,0.1-0.6c0-0.4,0.1-0.8,0.1-1.3c0-0.2,0-0.4,0-0.6c0-0.6,0-1.2,0-1.8c0,0,0,0,0,0
				C142.6,104.7,142.6,104.1,142.6,103.5z M138.8,105.2c0,0.6,0,1.2,0,1.7c0,0.4,0,0.7-0.1,1.1c0,0.2,0,0.4,0,0.6
				c0,0.5-0.1,0.9-0.2,1.4c0,0.1,0,0.2,0,0.2c-0.1,0.5-0.2,1-0.2,1.5c-2.7,14.6-14.2,26.2-28.8,28.9c-0.5,0.1-1,0.2-1.5,0.2
				c-0.1,0-0.2,0-0.3,0c-0.4,0.1-0.9,0.1-1.3,0.2c-0.2,0-0.4,0-0.7,0.1c-0.3,0-0.7,0.1-1,0.1c-0.6,0-1.2,0-1.7,0c0,0,0,0,0,0
				c-7.9,0-15.2-2.5-21.1-6.8c-0.3-0.2-0.6-0.5-0.9-0.7c-0.6-0.4-1.1-0.9-1.6-1.3c-0.6-0.5-1.2-1.1-1.8-1.7s-1.1-1.2-1.7-1.8
				c-0.5-0.5-0.9-1.1-1.3-1.6c-0.2-0.3-0.5-0.6-0.7-0.9c-4.3-5.9-6.8-13.2-6.8-21.1c0-1.2,0.1-2.5,0.2-3.7c0.2-1.5,0.4-2.9,0.7-4.4
				c0.2-0.9,0.4-1.8,0.7-2.6c0.2-0.7,0.5-1.5,0.8-2.2c5.2-13.5,18.3-23.1,33.6-23.1c0.6,0,1.2,0,1.7,0c0.4,0,0.7,0,1.1,0.1
				c0.2,0,0.4,0,0.6,0c0.5,0,0.9,0.1,1.4,0.2c0.1,0,0.2,0,0.3,0c0.5,0.1,1,0.2,1.5,0.2c14.6,2.7,26.2,14.2,28.9,28.8
				c0.1,0.5,0.2,1,0.2,1.5c0,0.1,0,0.2,0,0.3c0.1,0.4,0.1,0.9,0.2,1.3c0,0.2,0,0.4,0.1,0.7c0,0.3,0.1,0.7,0.1,1
				C138.8,104.1,138.8,104.7,138.8,105.2C138.8,105.2,138.8,105.2,138.8,105.2C138.8,105.2,138.8,105.2,138.8,105.2z"/>
			<path d="M102.9,88.2C102.8,88.2,102.8,88.2,102.9,88.2L102.9,88.2L102.9,88.2c-9.4,0-17.1,7.6-17.1,17c0,2.2,0.4,4.4,1.2,6.3
				c0,0.1,0.1,0.2,0.1,0.4c0.8,2,2,3.7,3.5,5.2c0,0,0.1,0.1,0.1,0.1c0.5,0.5,1,0.9,1.5,1.3c1.2,0.9,2.4,1.7,3.8,2.3
				c0.2,0.1,0.3,0.1,0.5,0.2c1.9,0.8,4,1.2,6.2,1.2h0h0c9.4,0,17-7.6,17-17C119.9,95.8,112.3,88.2,102.9,88.2z M116.1,105.3
				c0.1,7.2-6,12.9-13.3,12.9c-3.6,0-6.9-1.4-9.3-3.8c-2.3-2.4-3.7-5.6-3.7-9.3c0-7.3,5.7-13.3,13.3-13.3c7.1,0,13,5.9,13,13.1"/>
		</g>
	</g>
</g>
</svg>
