<?xml version="1.0" encoding="utf-8"?>
<!-- Generator: Adobe Illustrator 27.5.0, SVG Export Plug-In . SVG Version: 6.00 Build 0)  -->
<svg version="1.1" id="Layer_1" xmlns="http://www.w3.org/2000/svg" xmlns:xlink="http://www.w3.org/1999/xlink" x="0px" y="0px"
	 viewBox="0 0 325 325" style="enable-background:new 0 0 325 325;" xml:space="preserve">
<style type="text/css">
	.st0{fill:#74C6BE;}
	
		.st1{fill:none;stroke:#000000;stroke-width:6;stroke-linecap:round;stroke-linejoin:round;stroke-miterlimit:10;stroke-dasharray:6,16;}
	.st2{fill:#FFFFFF;stroke:#231F20;stroke-width:6;stroke-miterlimit:10;}
	.st3{fill:#FFFFFF;}
	.st4{fill:#231F20;}
	.st5{fill:none;stroke:#231F20;stroke-width:3.6;stroke-linecap:round;stroke-linejoin:round;stroke-miterlimit:10;}
	.st6{fill:none;stroke:#000000;stroke-width:5;stroke-linecap:round;stroke-linejoin:round;stroke-miterlimit:10;}
	.st7{fill:#5D6AB0;}
	.st8{fill:none;stroke:#FFFFFF;stroke-width:6;stroke-linecap:round;stroke-linejoin:round;stroke-miterlimit:10;}
	.st9{fill:#FFFFFF;stroke:#231F20;stroke-width:6;stroke-linecap:round;stroke-linejoin:round;stroke-miterlimit:10;}
</style>
<g>
	<path class="st0" d="M297.4,125.9c-19.3-81.2-79.4-130.9-156-84c-29,20.5-14.8,29.7-41.6,53.2c-24.3,21.3-45.5,9-67.9,40.8
		c-25.1,35.6-4.5,79.6,32.7,104.6C172.4,320.5,339.4,287.1,297.4,125.9z"/>
	<path class="st1" d="M23.6,243.9c6.2,7.8,13.8,15,22.2,21.1c40.1,32.1,89.6,48,133.3,46.1"/>
	<circle class="st2" cx="36.3" cy="26.6" r="10.3"/>
	<g>
		<g>
			<g>
				<path class="st3" d="M62.2,194.3c-1.4,0-2.5-1.1-2.5-2.5V71.3c0-8.4,6.8-15.2,15.2-15.2h165c8.4,0,15.2,6.8,15.2,15.2v120.6
					c0,1.4-1.1,2.5-2.5,2.5H62.2z"/>
				<path class="st4" d="M239.9,58.6c7,0,12.7,5.7,12.7,12.7v120.6H62.2V71.3c0-7,5.7-12.7,12.7-12.7H239.9 M239.9,53.6h-165
					c-9.8,0-17.7,7.9-17.7,17.7v120.6c0,2.8,2.2,5,5,5h190.4c2.8,0,5-2.2,5-5V71.3C257.6,61.5,249.7,53.6,239.9,53.6L239.9,53.6z"/>
			</g>
			<g>
				<path class="st3" d="M55.9,223.1c-11.9,0-21.5-9.7-21.5-21.5v-6.3c0-1.4,1.1-2.5,2.5-2.5H278c1.4,0,2.5,1.1,2.5,2.5v6.3
					c0,11.9-9.7,21.5-21.5,21.5H55.9z"/>
				<path class="st4" d="M278,195.2v6.3c0,10.5-8.5,19-19,19H55.9c-10.5,0-19-8.5-19-19v-6.3H278 M278,190.2H36.8c-2.8,0-5,2.2-5,5
					v6.3c0,13.3,10.8,24,24,24h203.1c13.3,0,24-10.8,24-24v-6.3C283,192.4,280.7,190.2,278,190.2L278,190.2z"/>
			</g>
		</g>
		<g>
			<line class="st5" x1="84.3" y1="85.5" x2="129.5" y2="85.5"/>
			<line class="st5" x1="84.3" y1="99.2" x2="180.2" y2="99.2"/>
			<line class="st5" x1="84.3" y1="112.8" x2="146.4" y2="112.8"/>
			<line class="st5" x1="84.3" y1="126.5" x2="170.5" y2="126.5"/>
		</g>
		<g>
			<g>
				<g>
					<path class="st3" d="M178.5,254c-6.7,0-12.2-5.5-12.2-12.2v-84.1c0-6.7,5.5-12.2,12.2-12.2h45.3c6.7,0,12.2,5.5,12.2,12.2v84.1
						c0,6.7-5.5,12.2-12.2,12.2H178.5z"/>
					<path d="M223.8,148c5.4,0,9.7,4.3,9.7,9.7v84.1c0,5.4-4.3,9.7-9.7,9.7h-45.3c-5.4,0-9.7-4.3-9.7-9.7v-84.1
						c0-5.4,4.3-9.7,9.7-9.7H223.8 M223.8,143h-45.3c-8.1,0-14.7,6.6-14.7,14.7v84.1c0,8.1,6.6,14.7,14.7,14.7h45.3
						c8.1,0,14.7-6.6,14.7-14.7v-84.1C238.5,149.6,231.9,143,223.8,143L223.8,143z"/>
				</g>
			</g>
			<line class="st6" x1="186.8" y1="231.3" x2="215.4" y2="231.3"/>
			<g>
				<g>
					<path class="st7" d="M211.1,202.3c-0.4,0-0.8-0.1-1.2-0.3l-8.9-4.7l-8.9,4.7c-0.4,0.2-0.8,0.3-1.2,0.3c-0.5,0-1-0.2-1.5-0.5
						c-0.8-0.6-1.2-1.5-1-2.4l1.7-9.9l-7.2-7c-0.7-0.7-0.9-1.7-0.6-2.6s1.1-1.6,2-1.7l10-1.5l4.4-9c0.4-0.9,1.3-1.4,2.2-1.4l0,0
						c1,0,1.8,0.5,2.2,1.4l4.4,9l10.1,1.3c1,0.1,1.8,0.8,2.1,1.7c0.3,0.9,0.1,1.9-0.6,2.6l-7.4,7.2l1.7,9.9c0.2,0.9-0.2,1.9-1,2.4
						C212.1,202.1,211.6,202.3,211.1,202.3z"/>
					<path d="M201,168.9l5,10.2l11.4,1.5l-8.3,8.1l1.9,11.2l-10-5.3l-10,5.3l1.9-11.2l-8.1-7.9L196,179L201,168.9 M201,163.9
						c-1.9,0-3.6,1.1-4.5,2.8l-3.9,7.8l-8.7,1.3c-1.9,0.3-3.4,1.6-4,3.4c-0.6,1.8-0.1,3.8,1.3,5.1l6.2,6.1l-1.5,8.6
						c-0.3,1.9,0.4,3.8,2,4.9c0.9,0.6,1.9,1,2.9,1c0.8,0,1.6-0.2,2.3-0.6l7.7-4.1l7.7,4.1c0.7,0.4,1.5,0.6,2.3,0.6
						c1,0,2.1-0.3,2.9-1c1.5-1.1,2.3-3,2-4.9l-1.5-8.6l6.4-6.2c1.4-1.3,1.9-3.3,1.3-5.2c-0.6-1.8-2.2-3.1-4.1-3.4l-8.7-1.1l-3.8-7.8
						C204.7,164.9,202.9,163.9,201,163.9L201,163.9z"/>
				</g>
			</g>
		</g>
		<g>
			<g>
				<path class="st7" d="M242.1,124.9c-6.8,0-13.4-3.1-17.8-8.4c-0.7,0.1-1.4,0.1-2.1,0.1c-6.2,0-12.1-2.4-16.5-6.9
					c-5-5-7.4-11.7-6.8-18.6c-5.4-4.4-8.4-10.9-8.4-18s3-13.5,8.4-18c-0.6-6.9,1.8-13.7,6.8-18.6c4.4-4.4,10.3-6.9,16.5-6.9
					c0.7,0,1.4,0,2.1,0.1c4.4-5.4,10.9-8.4,18-8.4c7.1,0,13.5,3,18,8.4c0.7-0.1,1.4-0.1,2.1-0.1c6.3,0,12.1,2.4,16.5,6.9
					c5,5,7.4,11.7,6.8,18.6c5.4,4.4,8.4,10.9,8.4,18c0,7-3,13.5-8.4,18c0.7,6.9-1.8,13.7-6.8,18.6c-4.4,4.4-10.3,6.8-16.5,6.8
					c-0.7,0-1.4,0-2.1-0.1C255.8,121.9,249.2,124.9,242.1,124.9z"/>
				<path d="M242.3,23.9c6.7,0,12.9,3.2,16.9,8.6c1.1-0.2,2.1-0.2,3.2-0.2c5.6,0,10.8,2.2,14.8,6.1c4.8,4.8,6.9,11.4,5.9,18
					c5.4,3.9,8.6,10.1,8.6,16.9c0,6.7-3.2,12.9-8.6,16.9c1,6.6-1.1,13.2-5.9,18c-3.9,3.9-9.2,6.1-14.7,6.1c-1.1,0-2.2-0.1-3.2-0.2
					c-3.9,5.4-10.2,8.6-17,8.6c-6.5,0-12.8-3.2-16.7-8.6c-1.1,0.2-2.1,0.3-3.2,0.3c-5.6,0-10.8-2.2-14.8-6.1
					c-4.8-4.8-6.9-11.4-5.9-18c-5.4-3.9-8.6-10.1-8.6-16.9s3.2-12.9,8.6-16.9c-1-6.6,1.1-13.2,5.9-18c3.9-3.9,9.2-6.1,14.8-6.1
					c1.1,0,2.1,0.1,3.2,0.2C229.3,27.1,235.5,23.9,242.3,23.9 M242.3,18.9c-7.4,0-14.2,3-19,8.3c-0.3,0-0.7,0-1,0
					c-6.9,0-13.4,2.7-18.3,7.6c-5.2,5.2-7.9,12.1-7.6,19.3c-5.3,4.9-8.3,11.7-8.3,19c0,7.4,3,14.1,8.3,19
					c-0.3,7.2,2.4,14.1,7.6,19.3c4.9,4.9,11.4,7.6,18.3,7.6c0.4,0,0.7,0,1.1,0c4.9,5.3,11.7,8.3,18.9,8.3c7.5,0,14.3-3,19.2-8.3
					c0.4,0,0.7,0,1,0c6.9,0,13.4-2.7,18.3-7.6c5.2-5.2,7.9-12.1,7.6-19.3c5.3-4.9,8.3-11.7,8.3-19c0-7.4-3-14.1-8.3-19
					c0.3-7.2-2.4-14.1-7.6-19.3c-4.9-4.9-11.4-7.6-18.3-7.6c-0.3,0-0.7,0-1,0C256.4,21.9,249.6,18.9,242.3,18.9L242.3,18.9z"/>
			</g>
			<polyline class="st8" points="225.5,74.9 235,84.6 259,61.8 			"/>
		</g>
	</g>
	<g>
		<line class="st9" x1="302.1" y1="280" x2="283.5" y2="288"/>
		<line class="st9" x1="296.8" y1="293.3" x2="288.8" y2="274.7"/>
	</g>
</g>
</svg>
